<?xml version="1.0" encoding="UTF-8" standalone="no"?>
<svg
   xmlns:dc="http://purl.org/dc/elements/1.1/"
   xmlns:cc="http://creativecommons.org/ns#"
   xmlns:rdf="http://www.w3.org/1999/02/22-rdf-syntax-ns#"
   xmlns:svg="http://www.w3.org/2000/svg"
   xmlns="http://www.w3.org/2000/svg"
   viewBox="0 0 640 853.33331"
   height="60"
   width="60"
   xml:space="preserve"
   id="svg2"
   version="1.1"><metadata
     id="metadata8"><rdf:RDF><cc:Work
         rdf:about=""><dc:format>image/svg+xml</dc:format><dc:type
           rdf:resource="http://purl.org/dc/dcmitype/StillImage" /></cc:Work></rdf:RDF></metadata><defs
     id="defs6" /><g
     transform="matrix(1.3333333,0,0,-1.3333333,0,853.33333)"
     id="g10"><g
       transform="scale(1,-1)"
       id="g12"><path
         id="path16"
         style="fill:#ffffff;fill-opacity:1;fill-rule:nonzero;stroke:none"
         d="m 208.94287,-320.61621 c 0,-14.15332 6.63916,-26.75537 16.97266,-34.86279 0,0 -15.79834,-25.27784 -15.79834,-25.27784 -13.23291,9.50245 -23.2002,23.26416 -27.89844,39.27832 7.36426,4.7378 12.24268,13.00538 12.24268,22.4126 0,9.06201 -4.52637,17.06397 -11.44043,21.87451 5.06152,15.17383 14.90478,28.16016 27.7417,37.17286 0,0 14.67968,-26.11622 14.67968,-26.11622 -10.06201,-8.11816 -16.49951,-20.54687 -16.49951,-34.48144 z" /><path
         id="path18"
         style="fill:#ffffff;fill-opacity:1;fill-rule:nonzero;stroke:none"
         d="m 186.98486,-319.06592 c 0,10.57862 -8.57519,19.15479 -19.15381,19.15479 -10.5791,0 -19.15478,-8.57617 -19.15478,-19.15479 0,-10.57812 8.57568,-19.15381 19.15478,-19.15381 10.57862,0 19.15381,8.57569 19.15381,19.15381 z" /><path
         id="path20"
         style="fill:#ffffff;fill-opacity:1;fill-rule:nonzero;stroke:none"
         d="m 294.58203,-272.74316 c 4.4541,0 8.65235,1.09472 12.34082,3.02734 11.47266,-12.09961 18.90332,-28.06934 20.11817,-45.75098 0,0 -29.75879,-0.58398 -29.75879,-0.58398 -2.28614,22.31348 -21.1377,39.7207 -44.05371,39.7207 -6.35254,0 -12.39063,-1.3418 -17.85206,-3.75097 0,0 -14.78955,25.88183 -14.78955,25.88183 9.84571,4.84961 20.92383,7.57617 32.64161,7.57617 5.06836,0 10.01464,-0.51367 14.79687,-1.4834 1.01953,-13.77636 12.51953,-24.63671 26.55664,-24.63671 z" /><path
         id="path22"
         style="fill:#ffffff;fill-opacity:1;fill-rule:nonzero;stroke:none"
         d="m 313.73633,-246.1123 c 0,10.57812 -8.5752,19.15332 -19.1543,19.15332 -10.5791,0 -19.1543,-8.5752 -19.1543,-19.15332 0,-10.57911 8.5752,-19.1543 19.1543,-19.1543 10.5791,0 19.1543,8.57519 19.1543,19.1543 z" /><path
         id="path24"
         style="fill:#ffffff;fill-opacity:1;fill-rule:nonzero;stroke:none"
         d="m 308.96484,-369.27734 c -4.34375,3.0791 -9.65136,4.88916 -15.38183,4.88916 -14.70801,0 -26.63086,-11.92334 -26.63086,-26.63086 0,-0.77491 0.0351,-1.54102 0.0996,-2.29932 -4.47852,-0.84619 -9.09863,-1.29248 -13.82324,-1.29248 -11.83399,0 -23.01612,2.78271 -32.93506,7.72266 0,0 14.71435,25.89746 14.71435,25.89746 5.55713,-2.51172 11.72559,-3.91162 18.22071,-3.91162 22.71386,0 41.43164,17.10107 43.98632,39.13037 0,0 29.75977,-0.90235 29.75977,-0.90235 -1.31738,-16.25293 -7.88867,-31.01855 -18.00977,-42.60302 z" /><path
         id="path26"
         style="fill:#ffffff;fill-opacity:1;fill-rule:nonzero;stroke:none"
         d="m 312.73633,-391.01904 c 0,10.5791 -8.57422,19.15429 -19.15332,19.15429 -10.5791,0 -19.1543,-8.57519 -19.1543,-19.15429 0,-10.57862 8.5752,-19.1543 19.1543,-19.1543 10.5791,0 19.15332,8.57568 19.15332,19.1543 z" /></g></g></svg>