<?xml version="1.0" encoding="UTF-8" standalone="no"?>
<!-- Created with Inkscape (http://www.inkscape.org/) -->

<svg
   xmlns:dc="http://purl.org/dc/elements/1.1/"
   xmlns:cc="http://creativecommons.org/ns#"
   xmlns:rdf="http://www.w3.org/1999/02/22-rdf-syntax-ns#"
   xmlns:svg="http://www.w3.org/2000/svg"
   xmlns="http://www.w3.org/2000/svg"
   xmlns:xlink="http://www.w3.org/1999/xlink"
   xmlns:sodipodi="http://sodipodi.sourceforge.net/DTD/sodipodi-0.dtd"
   xmlns:inkscape="http://www.inkscape.org/namespaces/inkscape"
   width="200"
   height="200"
   id="svg18416"
   version="1.1"
   inkscape:version="0.92.4 (5da689c313, 2019-01-14)"
   sodipodi:docname="folder-saved-search.svg">
  <defs
     id="defs18418">
    <linearGradient
       id="linearGradient871">
      <stop
         id="stop867"
         offset="0"
         style="stop-color:#ffeaad;stop-opacity:1" />
      <stop
         id="stop869"
         offset="1"
         style="stop-color:#ecca7d;stop-opacity:1" />
    </linearGradient>
    <linearGradient
       id="linearGradient865">
      <stop
         id="stop859"
         offset="0"
         style="stop-color:#ecca7d;stop-opacity:1" />
      <stop
         style="stop-color:#ffe29a;stop-opacity:1"
         offset="0.5"
         id="stop861" />
      <stop
         id="stop863"
         offset="1"
         style="stop-color:#ffedb3;stop-opacity:1" />
    </linearGradient>
    <linearGradient
       id="linearGradient857">
      <stop
         id="stop853"
         offset="0"
         style="stop-color:#ffedb4;stop-opacity:1" />
      <stop
         id="stop855"
         offset="1"
         style="stop-color:#ffedb4;stop-opacity:1" />
    </linearGradient>
    <linearGradient
       id="linearGradient903">
      <stop
         id="stop899"
         offset="0"
         style="stop-color:#dc9b00;stop-opacity:1" />
      <stop
         id="stop901"
         offset="1"
         style="stop-color:#ffe8a5;stop-opacity:1" />
    </linearGradient>
    <linearGradient
       id="linearGradient19076">
      <stop
         style="stop-color:#3bc1f1;stop-opacity:1;"
         offset="0"
         id="stop19078" />
      <stop
         style="stop-color:#0e95c5;stop-opacity:1;"
         offset="1"
         id="stop19080" />
    </linearGradient>
    <linearGradient
       id="linearGradient18984">
      <stop
         style="stop-color:#78d9fd;stop-opacity:1;"
         offset="0"
         id="stop18986" />
      <stop
         style="stop-color:#7bdeff;stop-opacity:1;"
         offset="1"
         id="stop18988" />
    </linearGradient>
    <linearGradient
       id="linearGradient18973">
      <stop
         style="stop-color:#35cafc;stop-opacity:1;"
         offset="0"
         id="stop18975" />
      <stop
         id="stop18981"
         offset="0.5"
         style="stop-color:#50d4ff;stop-opacity:1;" />
      <stop
         style="stop-color:#4dcbf6;stop-opacity:1;"
         offset="1"
         id="stop18977" />
    </linearGradient>
    <linearGradient
       inkscape:collect="always"
       xlink:href="#linearGradient18973"
       id="linearGradient18979"
       x1="-9.9121208"
       y1="1081.4041"
       x2="-9.9121208"
       y2="1139.7776"
       gradientUnits="userSpaceOnUse" />
    <linearGradient
       inkscape:collect="always"
       xlink:href="#linearGradient18984"
       id="linearGradient18990"
       x1="-26.20083"
       y1="1070.1985"
       x2="-26.20083"
       y2="1082.5807"
       gradientUnits="userSpaceOnUse" />
    <linearGradient
       inkscape:collect="always"
       xlink:href="#linearGradient18973-9"
       id="linearGradient18979-8"
       x1="-9.9121208"
       y1="1081.4041"
       x2="-9.9121208"
       y2="1139.7776"
       gradientUnits="userSpaceOnUse" />
    <linearGradient
       id="linearGradient18973-9">
      <stop
         style="stop-color:#35cafc;stop-opacity:1;"
         offset="0"
         id="stop18975-4" />
      <stop
         id="stop18981-4"
         offset="0.5"
         style="stop-color:#50d4ff;stop-opacity:1;" />
      <stop
         style="stop-color:#4dcbf6;stop-opacity:1;"
         offset="1"
         id="stop18977-5" />
    </linearGradient>
    <linearGradient
       gradientTransform="translate(0,2.9382813e-5)"
       y2="1139.7776"
       x2="-9.9121208"
       y1="1081.4041"
       x1="-9.9121208"
       gradientUnits="userSpaceOnUse"
       id="linearGradient19047"
       xlink:href="#linearGradient18973-9"
       inkscape:collect="always" />
    <linearGradient
       inkscape:collect="always"
       xlink:href="#linearGradient19076"
       id="linearGradient19082"
       x1="-9.6167412"
       y1="1138.386"
       x2="-9.6167412"
       y2="1140.1899"
       gradientUnits="userSpaceOnUse" />
    <linearGradient
       inkscape:collect="always"
       xlink:href="#linearGradient18984"
       id="linearGradient19091"
       gradientUnits="userSpaceOnUse"
       x1="-26.20083"
       y1="1070.1985"
       x2="-26.20083"
       y2="1082.5807" />
    <linearGradient
       inkscape:collect="always"
       xlink:href="#linearGradient18973"
       id="linearGradient19093"
       gradientUnits="userSpaceOnUse"
       x1="-9.9121208"
       y1="1081.4041"
       x2="-9.9121208"
       y2="1139.7776" />
    <linearGradient
       inkscape:collect="always"
       xlink:href="#linearGradient19076"
       id="linearGradient19095"
       gradientUnits="userSpaceOnUse"
       x1="-9.6167412"
       y1="1138.386"
       x2="-9.6167412"
       y2="1140.1899" />
    <linearGradient
       inkscape:collect="always"
       xlink:href="#linearGradient857"
       id="linearGradient19106"
       gradientUnits="userSpaceOnUse"
       x1="-26.20083"
       y1="1070.1985"
       x2="-26.20083"
       y2="1082.5807" />
    <linearGradient
       inkscape:collect="always"
       xlink:href="#linearGradient865"
       id="linearGradient19108"
       gradientUnits="userSpaceOnUse"
       x1="-9.9121208"
       y1="1081.4041"
       x2="-9.9121208"
       y2="1139.7776" />
    <linearGradient
       inkscape:collect="always"
       xlink:href="#linearGradient871"
       id="linearGradient19110"
       gradientUnits="userSpaceOnUse"
       x1="-9.6167412"
       y1="1138.386"
       x2="-9.6167412"
       y2="1140.1899" />
    <clipPath
       clipPathUnits="userSpaceOnUse"
       id="clipPath5833">
      <rect
         style="color:#000000;display:inline;overflow:visible;visibility:visible;opacity:0.16100003;fill:#dddedd;fill-opacity:1;fill-rule:nonzero;stroke:none;stroke-width:0.1;stroke-linecap:round;stroke-linejoin:miter;stroke-miterlimit:4;stroke-dasharray:none;stroke-dashoffset:0;stroke-opacity:1;marker:none;enable-background:accumulate"
         id="rect5835"
         width="162.85715"
         height="118.57143"
         x="15"
         y="1379.505"
         rx="2.8672099"
         ry="2.78354" />
    </clipPath>
  </defs>
  <sodipodi:namedview
     id="base"
     pagecolor="#ffffff"
     bordercolor="#666666"
     borderopacity="1.0"
     inkscape:pageopacity="0.0"
     inkscape:pageshadow="2"
     inkscape:zoom="4.1271909"
     inkscape:cx="56.130683"
     inkscape:cy="86.925633"
     inkscape:document-units="px"
     inkscape:current-layer="layer1"
     showgrid="true"
     inkscape:window-width="1920"
     inkscape:window-height="955"
     inkscape:window-x="0"
     inkscape:window-y="25"
     inkscape:window-maximized="1"
     inkscape:pagecheckerboard="true">
    <inkscape:grid
       type="xygrid"
       id="grid888" />
  </sodipodi:namedview>
  <metadata
     id="metadata18421">
    <rdf:RDF>
      <cc:Work
         rdf:about="">
        <dc:format>image/svg+xml</dc:format>
        <dc:type
           rdf:resource="http://purl.org/dc/dcmitype/StillImage" />
        <dc:title />
      </cc:Work>
    </rdf:RDF>
  </metadata>
  <g
     inkscape:label="Layer 1"
     inkscape:groupmode="layer"
     id="layer1"
     transform="translate(0,-852.36218)">
    <g
       id="g19098"
       transform="matrix(2.213863,0,0,2.213863,-104.07972,-1155.9649)">
      <g
         transform="translate(96.469568,-152.02796)"
         id="g19084">
        <path
           style="color:#000000;fill:url(#linearGradient19106);fill-opacity:1;fill-rule:nonzero;stroke:none;stroke-width:0.40000001;marker:none;visibility:visible;display:inline;overflow:visible;enable-background:accumulate"
           d="m -44.762384,1070.2064 c 7.37694,0 14.753879,0 22.130819,0 3.287123,0 4.652547,7.0711 7.727809,7.0711 16.8372138,0 34.684579,0 51.521792,0 1.818779,0 3.282995,1.4642 3.282995,3.283 l 0,50.5076 c 0,1.8188 -1.464216,-2.0203 -3.282995,-2.0203 l -81.38042,0 c -1.81878,0 -3.282996,-1.4642 -3.282996,-3.283 l 0,-52.2754 c 0,-1.8188 1.464216,-3.283 3.282996,-3.283 z"
           id="rect18953-5"
           inkscape:connector-curvature="0"
           sodipodi:nodetypes="sccssssssss" />
        <path
           id="rect18953"
           d="m -44.762384,1081.2778 81.38042,0 c 1.818779,0 3.282995,1.4642 3.282995,3.283 l 0,52.2754 c 0,1.8188 -1.464216,3.283 -3.282995,3.283 l -81.38042,0 c -1.81878,0 -3.282996,-1.4642 -3.282996,-3.283 l 0,-52.2754 c 0,-1.8188 1.464216,-3.283 3.282996,-3.283 z"
           style="color:#000000;fill:url(#linearGradient19108);fill-opacity:1;fill-rule:nonzero;stroke:none;stroke-width:0.40000001;marker:none;visibility:visible;display:inline;overflow:visible;enable-background:accumulate"
           inkscape:connector-curvature="0" />
        <path
           inkscape:connector-curvature="0"
           style="font-size:medium;font-style:normal;font-variant:normal;font-weight:normal;font-stretch:normal;text-indent:0;text-align:start;text-decoration:none;line-height:normal;letter-spacing:normal;word-spacing:normal;text-transform:none;direction:ltr;block-progression:tb;writing-mode:lr-tb;text-anchor:start;baseline-shift:baseline;opacity:0.75;color:#000000;fill:#ffde8f;fill-opacity:1;fill-rule:nonzero;stroke:none;stroke-width:1px;marker:none;visibility:visible;display:inline;overflow:visible;enable-background:accumulate;font-family:Sans;-inkscape-font-specification:Sans"
           d="m -48.03125,1134.0809 0,1 87.9375,0 0,-1 -87.9375,0 z"
           id="path19074" />
        <path
           inkscape:connector-curvature="0"
           style="font-size:medium;font-style:normal;font-variant:normal;font-weight:normal;font-stretch:normal;text-indent:0;text-align:start;text-decoration:none;line-height:normal;letter-spacing:normal;word-spacing:normal;text-transform:none;direction:ltr;block-progression:tb;writing-mode:lr-tb;text-anchor:start;baseline-shift:baseline;opacity:0.75;color:#000000;fill:#ffdc8b;fill-opacity:1;fill-rule:nonzero;stroke:none;stroke-width:1px;marker:none;visibility:visible;display:inline;overflow:visible;enable-background:accumulate;font-family:Sans;-inkscape-font-specification:Sans"
           d="m -48.03125,1136.2997 0,0.5312 c 0,0.162 0.0088,0.3132 0.03125,0.4688 l 87.875,0 c 0.02244,-0.1556 0.03125,-0.3068 0.03125,-0.4688 l 0,-0.5312 -87.9375,0 z"
           id="path19072" />
        <path
           inkscape:connector-curvature="0"
           style="font-size:medium;font-style:normal;font-variant:normal;font-weight:normal;font-stretch:normal;text-indent:0;text-align:start;text-decoration:none;line-height:normal;letter-spacing:normal;word-spacing:normal;text-transform:none;direction:ltr;block-progression:tb;writing-mode:lr-tb;text-anchor:start;baseline-shift:baseline;opacity:0.97607655;color:#000000;fill:url(#linearGradient19110);fill-opacity:1;fill-rule:nonzero;stroke:none;stroke-width:1px;marker:none;visibility:visible;display:inline;overflow:visible;enable-background:accumulate;font-family:Sans;-inkscape-font-specification:Sans"
           d="m -47.75,1138.1747 c 0.511971,1.1442 1.661176,1.9375 3,1.9375 l 81.375,0 c 1.33942,0 2.488367,-0.7925 3,-1.9375 l -87.375,0 z"
           id="path18992" />
      </g>
    </g>
    <path
       inkscape:connector-curvature="0"
       d="m 130,982.36218 c 12.70665,-12.70739 12.70665,-33.3837 0,-46.09105 -12.70714,-12.70714 -33.383839,-12.70714 -46.0909,0 -10.780398,10.78048 -12.413088,26.81355 -4.902465,39.33394 0,0 0.539483,0.90457 -0.189142,1.63329 -4.15675,4.15624 -16.627809,16.62752 -16.627809,16.62752 -3.309627,3.30834 -4.097783,7.93562 -1.162544,10.87412 l 0.505334,0.5037 c 2.934942,2.9335 7.562896,2.1484 10.872246,-1.1635 0,0 12.444657,-12.44407 16.592891,-16.59157 0.76355,-0.76339 1.66839,-0.22396 1.66839,-0.22396 12.520099,7.51106 28.553449,5.87767 39.333999,-4.90249 z m -40.07402,-6.0171 c -9.389376,-9.38937 -9.389117,-24.66686 0,-34.05626 9.389396,-9.38904 24.66709,-9.38938 34.05615,0 9.38938,9.38918 9.38938,24.66689 0,34.05626 -9.38906,9.3891 -24.66647,9.3891 -34.05615,0 z"
       id="path1048"
       style="stroke-width:0.25874645;fill:#d1b070;fill-opacity:1;opacity:0.75" />
    <g
       id="g1056"
       transform="matrix(0.3376713,0,0,0.3376713,52.484953,917.00077)" />
    <g
       id="g1058"
       transform="matrix(0.3376713,0,0,0.3376713,52.484953,917.00077)" />
    <g
       id="g1060"
       transform="matrix(0.3376713,0,0,0.3376713,52.484953,917.00077)" />
    <g
       id="g1062"
       transform="matrix(0.3376713,0,0,0.3376713,52.484953,917.00077)" />
    <g
       id="g1064"
       transform="matrix(0.3376713,0,0,0.3376713,52.484953,917.00077)" />
    <g
       id="g1066"
       transform="matrix(0.3376713,0,0,0.3376713,52.484953,917.00077)" />
    <g
       id="g1068"
       transform="matrix(0.3376713,0,0,0.3376713,52.484953,917.00077)" />
    <g
       id="g1070"
       transform="matrix(0.3376713,0,0,0.3376713,52.484953,917.00077)" />
    <g
       id="g1072"
       transform="matrix(0.3376713,0,0,0.3376713,52.484953,917.00077)" />
    <g
       id="g1074"
       transform="matrix(0.3376713,0,0,0.3376713,52.484953,917.00077)" />
    <g
       id="g1076"
       transform="matrix(0.3376713,0,0,0.3376713,52.484953,917.00077)" />
    <g
       id="g1078"
       transform="matrix(0.3376713,0,0,0.3376713,52.484953,917.00077)" />
    <g
       id="g1080"
       transform="matrix(0.3376713,0,0,0.3376713,52.484953,917.00077)" />
    <g
       id="g1082"
       transform="matrix(0.3376713,0,0,0.3376713,52.484953,917.00077)" />
    <g
       id="g1084"
       transform="matrix(0.3376713,0,0,0.3376713,52.484953,917.00077)" />
  </g>
</svg>
